<svg width="302" height="160" viewBox="0 0 302 160" fill="none" xmlns="http://www.w3.org/2000/svg">
<path d="M10.5839 144.369C8.98397 144.356 7.70746 143.919 6.75438 143.058C5.80131 142.197 5.3308 141.02 5.34286 139.527L5.66731 99.3681C5.69747 95.6349 6.78759 92.737 8.93766 90.6743C11.1411 88.612 14.1627 87.5964 18.0026 87.6274L42.8818 87.8284C44.4817 87.8413 45.7053 88.2246 46.5526 88.9781C47.4003 89.6783 47.8188 90.695 47.808 92.0283C47.7976 93.3083 47.3361 94.3179 46.4235 95.0572C45.5646 95.7437 44.3618 96.0806 42.8152 96.0681L19.7759 95.882C18.7093 95.8734 17.8532 96.2131 17.2076 96.9013C16.6154 97.5898 16.3143 98.5474 16.3044 99.7741L16.2081 111.694L36.6074 111.858C38.2074 111.871 39.431 112.255 40.2782 113.008C41.126 113.708 41.5444 114.725 41.5336 116.058C41.5233 117.338 41.0618 118.348 40.1491 119.087C39.2902 119.774 38.0875 120.111 36.5408 120.098L16.1415 119.933L15.9825 139.613C15.9709 141.053 15.4548 142.222 14.4341 143.12C13.4673 143.966 12.1839 144.382 10.5839 144.369ZM68.217 144.835C63.6305 144.798 59.6373 143.939 56.2375 142.258C52.8376 140.577 50.2164 138.236 48.3739 135.234C46.5852 132.18 45.7072 128.626 45.74 124.573C45.793 118.013 47.7274 112.935 51.5433 109.339C55.4124 105.744 60.8136 103.974 67.7467 104.03C72.0132 104.064 75.7677 104.761 79.0102 106.121C82.3059 107.481 84.8508 109.368 86.6447 111.783C88.4923 114.144 89.4039 116.845 89.3793 119.885C89.3586 122.445 88.516 124.412 86.8515 125.785C85.2404 127.159 82.9415 127.833 79.955 127.809L55.8757 127.615C55.8516 130.601 56.8733 132.876 58.9407 134.44C61.0619 135.95 64.1758 136.722 68.2823 136.755C72.6022 136.79 76.2898 135.86 79.3452 133.964C81.0604 132.912 82.398 132.389 83.358 132.397C84.2647 132.404 85.1412 132.838 85.9876 133.698C86.8869 134.612 87.3322 135.602 87.3236 136.669C87.3133 137.949 86.7718 138.958 85.6991 139.696C83.4454 141.385 80.8216 142.67 77.8277 143.553C74.8338 144.435 71.6303 144.863 68.217 144.835ZM76.8145 120.424C77.7212 120.431 78.3624 120.276 78.7383 119.959C79.1147 119.589 79.3061 119.004 79.3125 118.204C79.3276 116.337 78.2728 114.862 76.1482 113.778C74.0769 112.695 71.2546 112.138 67.6814 112.11C64.1082 112.081 61.2756 112.804 59.1836 114.281C57.1449 115.758 56.1155 117.75 56.0952 120.256L76.8145 120.424ZM117.59 145.234C113.004 145.197 109.011 144.338 105.611 142.657C102.211 140.976 99.5898 138.635 97.7473 135.633C95.9586 132.579 95.0806 129.025 95.1134 124.972C95.1664 118.412 97.1008 113.334 100.917 109.738C104.786 106.142 110.187 104.373 117.12 104.429C121.387 104.463 125.141 105.16 128.384 106.52C131.679 107.88 134.224 109.767 136.018 112.182C137.866 114.543 138.777 117.244 138.753 120.284C138.732 122.844 137.889 124.81 136.225 126.184C134.614 127.557 132.315 128.232 129.328 128.208L105.249 128.014C105.225 131 106.247 133.275 108.314 134.839C110.435 136.349 113.549 137.121 117.656 137.154C121.976 137.189 125.663 136.259 128.719 134.363C130.434 133.311 131.771 132.788 132.731 132.796C133.638 132.803 134.515 133.237 135.361 134.097C136.26 135.011 136.706 136.001 136.697 137.068C136.687 138.348 136.145 139.357 135.073 140.095C132.819 141.783 130.195 143.069 127.201 143.951C124.207 144.834 121.004 145.261 117.59 145.234ZM126.188 120.822C127.095 120.83 127.736 120.675 128.112 120.358C128.488 119.988 128.679 119.403 128.686 118.603C128.701 116.736 127.646 115.261 125.522 114.177C123.45 113.093 120.628 112.537 117.055 112.508C113.482 112.48 110.649 113.203 108.557 114.68C106.518 116.157 105.489 118.149 105.469 120.655L126.188 120.822ZM151.924 145.511C150.271 145.498 148.995 145.061 148.095 144.2C147.195 143.34 146.751 142.163 146.763 140.669L147.183 88.7511C147.195 87.2578 147.658 86.0881 148.571 85.2422C149.485 84.3962 150.768 83.9799 152.421 83.9932C154.021 84.0061 155.298 84.4431 156.251 85.3042C157.204 86.1653 157.674 87.3424 157.662 88.8357L157.243 140.754C157.231 142.247 156.741 143.417 155.775 144.262C154.808 145.108 153.524 145.524 151.924 145.511ZM191.499 145.831C186.485 145.79 182.094 144.742 178.324 142.684C174.607 140.628 171.723 137.724 169.674 133.974C167.678 130.171 166.7 125.71 166.742 120.59L166.966 92.831C166.978 91.3377 167.468 90.1683 168.434 89.3228C169.401 88.4772 170.685 88.0609 172.285 88.0738C173.885 88.0868 175.161 88.5504 176.114 89.4648C177.12 90.3263 177.617 91.477 177.606 92.917L177.379 120.916C177.337 126.196 178.557 130.259 181.041 133.106C183.525 135.953 187.113 137.395 191.806 137.433C196.446 137.471 200.031 136.086 202.56 133.28C205.144 130.421 206.456 126.378 206.499 121.151L206.725 93.1522C206.736 91.7123 207.226 90.5695 208.192 89.724C209.213 88.8255 210.523 88.3828 212.123 88.3957C213.723 88.4086 215 88.8456 215.953 89.7067C216.906 90.5677 217.376 91.7449 217.364 93.2382L217.14 120.997C217.1 125.957 215.998 130.322 213.834 134.091C211.724 137.861 208.74 140.77 204.883 142.819C201.027 144.868 196.565 145.872 191.499 145.831ZM271.275 88.8736C272.875 88.8865 274.152 89.3235 275.105 90.1846C276.058 91.0456 276.528 92.2228 276.516 93.7161L276.448 102.116C276.391 109.209 274.558 114.981 270.948 119.432C267.339 123.83 262.331 126.483 255.923 127.391L255.809 141.55C255.797 142.99 255.281 144.16 254.261 145.058C253.294 145.904 252.01 146.32 250.41 146.307C248.811 146.294 247.534 145.857 246.581 144.996C245.628 144.135 245.157 142.958 245.169 141.464L245.284 127.305C238.838 126.293 233.847 123.559 230.31 119.104C226.772 114.648 225.032 108.847 225.09 101.701L225.158 93.3012C225.17 91.8079 225.659 90.6385 226.626 89.7929C227.593 88.9474 228.877 88.531 230.476 88.544C232.076 88.5569 233.353 89.0206 234.305 89.935C235.312 90.7964 235.809 91.9472 235.798 93.3871L235.728 102.027C235.683 107.573 236.928 111.85 239.464 114.857C242.054 117.812 245.775 119.309 250.628 119.348C255.481 119.387 259.2 117.95 261.783 115.038C264.421 112.072 265.762 107.816 265.807 102.27L265.877 93.6301C265.888 92.1902 266.377 91.0474 267.344 90.2019C268.365 89.3034 269.675 88.8607 271.275 88.8736Z" fill="#DBDDDF"/>
<path d="M271.048 88.6827C272.648 88.6956 273.924 89.1326 274.877 89.9937C275.831 90.8548 276.301 92.0319 276.289 93.5252L276.221 101.925C276.164 109.018 274.33 114.79 270.721 119.241C267.112 123.639 262.104 126.292 255.696 127.2L255.582 141.359C255.57 142.799 255.054 143.969 254.033 144.867C253.067 145.713 251.783 146.129 250.183 146.116C248.583 146.103 247.307 145.666 246.354 144.805C245.401 143.944 244.93 142.767 244.942 141.274L245.057 127.114C238.611 126.102 233.62 123.368 230.082 118.913C226.545 114.457 224.805 108.656 224.863 101.51L224.931 93.1103C224.943 91.617 225.432 90.4476 226.399 89.602C227.366 88.7565 228.649 88.3402 230.249 88.3531C231.849 88.366 233.126 88.8297 234.078 89.7441C235.085 90.6056 235.582 91.7563 235.57 93.1962L235.501 101.836C235.456 107.382 236.701 111.659 239.237 114.667C241.827 117.621 245.548 119.118 250.401 119.157C255.254 119.196 258.973 117.759 261.556 114.847C264.194 111.881 265.535 107.625 265.58 102.079L265.649 93.4393C265.661 91.9993 266.15 90.8566 267.117 90.011C268.138 89.1126 269.448 88.6698 271.048 88.6827Z" fill="white"/>
<path d="M191.863 146.112C186.85 146.072 182.458 145.023 178.688 142.966C174.971 140.909 172.088 138.006 170.038 134.256C168.042 130.453 167.065 125.991 167.106 120.872L167.331 93.1125C167.343 91.6193 167.832 90.4498 168.799 89.6043C169.766 88.7587 171.049 88.3424 172.649 88.3554C174.249 88.3683 175.526 88.8319 176.478 89.7463C177.485 90.6078 177.982 91.7586 177.97 93.1985L177.744 121.198C177.701 126.477 178.922 130.541 181.406 133.388C183.889 136.234 187.478 137.677 192.171 137.715C196.811 137.752 200.396 136.368 202.925 133.561C205.508 130.702 206.821 126.659 206.863 121.433L207.089 93.4338C207.101 91.9938 207.59 90.8511 208.557 90.0055C209.578 89.1071 210.888 88.6643 212.488 88.6772C214.088 88.6901 215.364 89.1271 216.318 89.9882C217.271 90.8493 217.741 92.0264 217.729 93.5197L217.505 121.279C217.465 126.239 216.363 130.603 214.199 134.373C212.088 138.142 209.105 141.052 205.248 143.101C201.391 145.149 196.93 146.153 191.863 146.112Z" fill="white"/>
<path d="M152.304 144.963C150.651 144.95 149.374 144.513 148.474 143.652C147.575 142.791 147.131 141.614 147.143 140.121L147.562 88.2029C147.574 86.7096 148.037 85.5399 148.951 84.694C149.864 83.848 151.148 83.4317 152.801 83.445C154.401 83.4579 155.677 83.8949 156.63 84.756C157.584 85.6171 158.054 86.7942 158.042 88.2875L157.622 140.206C157.61 141.699 157.121 142.869 156.154 143.714C155.187 144.56 153.904 144.976 152.304 144.963Z" fill="white"/>
<path d="M117.344 145.494C112.757 145.457 108.764 144.598 105.364 142.917C101.964 141.236 99.343 138.895 97.5006 135.894C95.7118 132.839 94.8339 129.285 94.8666 125.232C94.9196 118.672 96.854 113.594 100.67 109.998C104.539 106.403 109.94 104.633 116.873 104.689C121.14 104.724 124.894 105.421 128.137 106.78C131.433 108.14 133.977 110.027 135.771 112.442C137.619 114.804 138.53 117.504 138.506 120.544C138.485 123.104 137.643 125.071 135.978 126.444C134.367 127.818 132.068 128.493 129.082 128.468L105.002 128.274C104.978 131.26 106 133.535 108.067 135.099C110.189 136.609 113.302 137.381 117.409 137.414C121.729 137.449 125.416 136.519 128.472 134.624C130.187 133.571 131.525 133.048 132.485 133.056C133.391 133.063 134.268 133.497 135.114 134.357C136.014 135.271 136.459 136.262 136.45 137.328C136.44 138.608 135.898 139.617 134.826 140.355C132.572 142.044 129.948 143.329 126.954 144.212C123.96 145.094 120.757 145.522 117.344 145.494ZM125.941 121.083C126.848 121.09 127.489 120.935 127.865 120.618C128.241 120.248 128.433 119.663 128.439 118.863C128.454 116.996 127.399 115.521 125.275 114.437C123.203 113.354 120.381 112.798 116.808 112.769C113.235 112.74 110.402 113.464 108.31 114.94C106.272 116.417 105.242 118.409 105.222 120.915L125.941 121.083Z" fill="white"/>
<path d="M68.3434 145.085C63.7569 145.048 59.7637 144.189 56.3638 142.508C52.964 140.827 50.3428 138.486 48.5003 135.484C46.7116 132.43 45.8336 128.876 45.8664 124.823C45.9194 118.263 47.8538 113.185 51.6696 109.589C55.5388 105.994 60.9399 104.224 67.873 104.28C72.1396 104.314 75.8941 105.011 79.1365 106.371C82.4323 107.731 84.9771 109.618 86.771 112.033C88.6187 114.394 89.5302 117.095 89.5057 120.135C89.485 122.695 88.6424 124.662 86.9779 126.035C85.3668 127.409 83.0679 128.083 80.0813 128.059L56.0021 127.865C55.978 130.851 56.9996 133.126 59.0671 134.69C61.1883 136.2 64.3021 136.972 68.4087 137.005C72.7285 137.04 76.4162 136.11 79.4716 134.215C81.1868 133.162 82.5244 132.639 83.4844 132.647C84.391 132.654 85.2675 133.088 86.114 133.948C87.0133 134.862 87.4586 135.852 87.45 136.919C87.4397 138.199 86.8982 139.208 85.8255 139.946C83.5718 141.635 80.948 142.92 77.9541 143.803C74.9602 144.685 71.7566 145.113 68.3434 145.085ZM76.9409 120.674C77.8475 120.681 78.4888 120.526 78.8647 120.209C79.241 119.839 79.4324 119.254 79.4389 118.454C79.454 116.587 78.3992 115.112 76.2746 114.028C74.2032 112.945 71.381 112.388 67.8078 112.36C64.2346 112.331 61.4019 113.055 59.3099 114.531C57.2713 116.008 56.2418 118 56.2216 120.506L76.9409 120.674Z" fill="white"/>
<path d="M10.5842 144.367C8.98421 144.354 7.7077 143.917 6.75462 143.056C5.80155 142.195 5.33104 141.018 5.34311 139.524L5.66756 99.3657C5.69772 95.6325 6.78783 92.7345 8.9379 90.6718C11.1413 88.6095 14.1629 87.5939 18.0028 87.6249L42.882 87.826C44.4819 87.8389 45.7056 88.2221 46.5528 88.9756C47.4005 89.6759 47.819 90.6926 47.8082 92.0259C47.7979 93.3058 47.3364 94.3155 46.4237 95.0548C45.5648 95.7412 44.362 96.0782 42.8154 96.0657L19.7762 95.8795C18.7096 95.8709 17.8534 96.2107 17.2079 96.8988C16.6156 97.5874 16.3145 98.545 16.3046 99.7716L16.2083 111.691L36.6077 111.856C38.2076 111.869 39.4312 112.252 40.2785 113.006C41.1262 113.706 41.5447 114.723 41.5339 116.056C41.5235 117.336 41.062 118.346 40.1494 119.085C39.2905 119.771 38.0877 120.108 36.5411 120.096L16.1418 119.931L15.9828 139.61C15.9711 141.05 15.455 142.219 14.4344 143.118C13.4675 143.963 12.1841 144.38 10.5842 144.367Z" fill="white"/>
<path d="M4.30712 73.0945C92.7221 -8.41785 187.222 86.5822 251.095 44.2976C189.722 99.0824 105.222 6.5835 4.30712 73.0945Z" fill="white"/>
<path d="M4.30712 73.0945C92.7221 -8.41785 187.222 86.5822 251.095 44.2976C189.722 99.0824 105.222 6.5835 4.30712 73.0945Z" fill="white"/>
<path d="M9.72231 69.0878C100.222 -4.41254 190.722 87.0882 249.222 46.0879C195.222 94.0884 104.722 11.0875 9.72231 69.0878Z" fill="white"/>
<path d="M9.72231 69.0878C100.222 -4.41254 190.722 87.0882 249.222 46.0879C195.222 94.0884 104.722 11.0875 9.72231 69.0878Z" fill="white"/>
<path d="M276.251 43.7953L279.522 40.3983L276.383 25.2553C276.383 25.2553 278.714 23.3469 281.935 20.3287C283.918 18.3927 285.269 16.0521 285.766 13.6947L285.763 13.7061L285.589 13.5404C283.023 13.9113 280.445 15.0607 278.28 16.7996L278.252 16.8227C274.858 19.6741 272.7 21.7493 272.7 21.7493L256.344 18.3373L252.535 21.2226L261.796 25.1237L265.885 27.6367C262.667 30.2706 259.8 33.25 257.385 36.4689L257.559 36.2509L253.539 35.019L251.223 37.0742L255.62 39.3644C255.367 39.8622 255.178 40.2845 255.011 40.7077L255.036 40.6486L254.672 40.9709C254.762 40.9475 254.855 40.9177 254.945 40.8922C254.917 40.9739 254.88 41.0574 254.851 41.1412L255.214 40.8188C255.614 40.7017 256.08 40.5434 256.544 40.3641L256.631 40.3267L258.968 44.4458L261.284 42.3906L260.085 38.6553C262.76 37.0959 265.577 35.0625 268.219 32.7181C268.767 32.2323 269.3 31.7399 269.818 31.24L269.746 31.309L272.336 35.1534L276.253 43.7951L276.251 43.7953Z" fill="#F5DD00"/>
<path d="M276.486 42.9555L279.436 39.9886L275.588 25.4932C275.588 25.4932 277.614 23.6162 281.188 20.3036C283.397 18.1873 285.038 15.8848 285.815 13.5017L285.815 13.5032C283.303 14.0051 283.303 14.0051 282.293 14.4845L281.283 14.9639C277.557 18.1288 273.334 22.2776 273.334 22.2776L256.316 19.2835L253.382 21.4165L260.339 24.3292L266.282 27.9536C262.757 30.8854 260.865 32.4508 258.072 35.8804L257.786 36.3224L253.85 35.1783L252.129 36.7758L255.965 38.9243C255.653 39.4425 255.414 39.8796 255.196 40.3153L255.229 40.2543L254.828 40.61C254.92 40.5777 255.016 40.5388 255.109 40.5044C255.071 40.5882 255.025 40.6746 254.986 40.7604L255.387 40.4047C255.799 40.2484 256.283 40.0446 256.767 39.8203L256.859 39.7744L259.267 43.6306L260.988 42.0331L260.001 38.1505C262.856 36.3369 266.411 33.6605 269.326 31.0733C268.75 31.6203 269.325 31.1573 269.326 31.0733L269.729 31.1512L272.183 33.8996L275.747 40.8999L276.486 42.9555Z" fill="#F5DD00"/>
</svg>
