<svg width="69" height="69" viewBox="0 0 69 69" fill="none" xmlns="http://www.w3.org/2000/svg">
<path d="M20.125 23C20.125 15.0609 26.5609 8.625 34.5 8.625C42.4391 8.625 48.875 15.0609 48.875 23C48.875 30.9391 42.4391 37.375 34.5 37.375C26.5609 37.375 20.125 30.9391 20.125 23ZM34.5 31.625C39.2635 31.625 43.125 27.7635 43.125 23C43.125 18.2365 39.2635 14.375 34.5 14.375C29.7365 14.375 25.875 18.2365 25.875 23C25.875 27.7635 29.7365 31.625 34.5 31.625Z" fill="#EEF4FA"/>
<path d="M18.2365 46.9865C13.9232 51.2999 11.5 57.15 11.5 63.25H17.25C17.25 58.675 19.0674 54.2874 22.3024 51.0524C25.5374 47.8174 29.925 46 34.5 46C39.075 46 43.4626 47.8174 46.6976 51.0524C49.9326 54.2874 51.75 58.675 51.75 63.25H57.5C57.5 57.15 55.0768 51.2999 50.7635 46.9865C46.4501 42.6732 40.6 40.25 34.5 40.25C28.4 40.25 22.5499 42.6732 18.2365 46.9865Z" fill="#EEF4FA"/>
</svg>
