<?xml version="1.0" encoding="UTF-8"?>
<svg xmlns="http://www.w3.org/2000/svg" xmlns:xlink="http://www.w3.org/1999/xlink" width="50px" height="35px" viewBox="0 0 50 35" version="1.1">
<g id="surface1">
<path style=" stroke:none;fill-rule:nonzero;fill:rgb(100%,100%,100%);fill-opacity:1;" d="M 2.140625 34.792969 C 1.867188 34.792969 1.609375 34.734375 1.371094 34.621094 C 1.140625 34.492188 1.027344 34.316406 1.027344 34.085938 L 1.027344 22.902344 C 1.027344 22.660156 1.128906 22.480469 1.335938 22.367188 C 1.542969 22.242188 1.765625 22.175781 2.003906 22.175781 L 7.980469 22.175781 C 8.230469 22.175781 8.40625 22.28125 8.511719 22.488281 C 8.625 22.695312 8.679688 22.914062 8.679688 23.144531 C 8.679688 23.417969 8.617188 23.65625 8.492188 23.851562 C 8.378906 24.046875 8.207031 24.144531 7.980469 24.144531 L 3.253906 24.144531 L 3.253906 27.597656 L 5.875 27.597656 C 6.101562 27.597656 6.273438 27.6875 6.386719 27.871094 C 6.511719 28.042969 6.574219 28.253906 6.574219 28.492188 C 6.574219 28.6875 6.519531 28.882812 6.402344 29.082031 C 6.300781 29.265625 6.125 29.355469 5.875 29.355469 L 3.253906 29.355469 L 3.253906 34.085938 C 3.253906 34.316406 3.140625 34.492188 2.910156 34.621094 C 2.683594 34.734375 2.425781 34.792969 2.140625 34.792969 Z M 11.882812 34.949219 C 11.070312 34.949219 10.351562 34.804688 9.726562 34.515625 C 9.109375 34.21875 8.625 33.804688 8.269531 33.273438 C 7.914062 32.734375 7.738281 32.113281 7.738281 31.410156 L 7.738281 29.941406 C 7.738281 29.320312 7.902344 28.753906 8.234375 28.234375 C 8.578125 27.707031 9.027344 27.285156 9.585938 26.976562 C 10.160156 26.652344 10.792969 26.492188 11.488281 26.492188 C 12.128906 26.492188 12.710938 26.628906 13.234375 26.90625 C 13.773438 27.183594 14.207031 27.5625 14.535156 28.042969 C 14.867188 28.527344 15.03125 29.09375 15.03125 29.734375 C 15.03125 30.230469 14.953125 30.585938 14.792969 30.804688 C 14.632812 31.011719 14.429688 31.144531 14.175781 31.203125 C 13.9375 31.25 13.6875 31.273438 13.421875 31.273438 L 9.945312 31.273438 L 9.945312 31.53125 C 9.945312 32.027344 10.128906 32.429688 10.496094 32.738281 C 10.871094 33.039062 11.355469 33.1875 11.949219 33.1875 C 12.328125 33.1875 12.640625 33.128906 12.890625 33.015625 C 13.144531 32.898438 13.359375 32.789062 13.542969 32.6875 C 13.726562 32.582031 13.898438 32.53125 14.058594 32.53125 C 14.226562 32.53125 14.375 32.589844 14.503906 32.703125 C 14.628906 32.820312 14.726562 32.957031 14.792969 33.117188 C 14.863281 33.269531 14.894531 33.402344 14.894531 33.515625 C 14.894531 33.710938 14.769531 33.925781 14.519531 34.15625 C 14.28125 34.371094 13.929688 34.5625 13.476562 34.722656 C 13.03125 34.875 12.5 34.949219 11.882812 34.949219 Z M 9.945312 29.960938 L 12.445312 29.960938 C 12.640625 29.960938 12.773438 29.933594 12.839844 29.875 C 12.921875 29.804688 12.960938 29.679688 12.960938 29.496094 C 12.960938 29.230469 12.886719 28.992188 12.738281 28.785156 C 12.601562 28.578125 12.417969 28.417969 12.191406 28.304688 C 11.972656 28.1875 11.726562 28.132812 11.453125 28.132812 C 11.191406 28.132812 10.945312 28.1875 10.71875 28.304688 C 10.488281 28.40625 10.300781 28.5625 10.152344 28.769531 C 10.015625 28.964844 9.945312 29.203125 9.945312 29.476562 Z M 20.191406 34.949219 C 19.382812 34.949219 18.664062 34.804688 18.035156 34.515625 C 17.417969 34.21875 16.933594 33.804688 16.578125 33.273438 C 16.226562 32.734375 16.050781 32.113281 16.050781 31.410156 L 16.050781 29.941406 C 16.050781 29.320312 16.214844 28.753906 16.546875 28.234375 C 16.886719 27.707031 17.339844 27.285156 17.898438 26.976562 C 18.46875 26.652344 19.101562 26.492188 19.800781 26.492188 C 20.4375 26.492188 21.019531 26.628906 21.546875 26.90625 C 22.082031 27.183594 22.515625 27.5625 22.847656 28.042969 C 23.179688 28.527344 23.34375 29.09375 23.34375 29.734375 C 23.34375 30.230469 23.265625 30.585938 23.105469 30.804688 C 22.945312 31.011719 22.738281 31.144531 22.488281 31.203125 C 22.246094 31.25 21.996094 31.273438 21.734375 31.273438 L 18.257812 31.273438 L 18.257812 31.53125 C 18.257812 32.027344 18.441406 32.429688 18.804688 32.738281 C 19.183594 33.039062 19.667969 33.1875 20.261719 33.1875 C 20.636719 33.1875 20.953125 33.128906 21.203125 33.015625 C 21.453125 32.898438 21.671875 32.789062 21.855469 32.6875 C 22.035156 32.582031 22.207031 32.53125 22.367188 32.53125 C 22.539062 32.53125 22.6875 32.589844 22.8125 32.703125 C 22.9375 32.820312 23.035156 32.957031 23.105469 33.117188 C 23.171875 33.269531 23.207031 33.402344 23.207031 33.515625 C 23.207031 33.710938 23.082031 33.925781 22.828125 34.15625 C 22.589844 34.371094 22.242188 34.5625 21.785156 34.722656 C 21.339844 34.875 20.808594 34.949219 20.191406 34.949219 Z M 18.257812 29.960938 L 20.757812 29.960938 C 20.953125 29.960938 21.082031 29.933594 21.152344 29.875 C 21.230469 29.804688 21.273438 29.679688 21.273438 29.496094 C 21.273438 29.230469 21.199219 28.992188 21.050781 28.785156 C 20.914062 28.578125 20.730469 28.417969 20.5 28.304688 C 20.285156 28.1875 20.039062 28.132812 19.765625 28.132812 C 19.503906 28.132812 19.257812 28.1875 19.027344 28.304688 C 18.800781 28.40625 18.613281 28.5625 18.464844 28.769531 C 18.328125 28.964844 18.257812 29.203125 18.257812 29.476562 Z M 25.917969 34.792969 C 25.597656 34.792969 25.335938 34.71875 25.128906 34.570312 C 24.925781 34.417969 24.824219 34.253906 24.824219 34.066406 L 24.824219 22.503906 C 24.824219 22.296875 24.925781 22.132812 25.128906 22.003906 C 25.335938 21.878906 25.597656 21.816406 25.917969 21.816406 C 26.226562 21.816406 26.488281 21.878906 26.707031 22.003906 C 26.921875 22.132812 27.03125 22.296875 27.03125 22.503906 L 27.03125 34.066406 C 27.03125 34.253906 26.921875 34.417969 26.707031 34.570312 C 26.488281 34.71875 26.226562 34.792969 25.917969 34.792969 Z M 33.128906 34.894531 C 32.351562 34.894531 31.65625 34.769531 31.039062 34.515625 C 30.421875 34.253906 29.933594 33.832031 29.566406 33.257812 C 29.203125 32.671875 29.019531 31.894531 29.019531 30.925781 L 29.019531 22.882812 C 29.019531 22.632812 29.132812 22.453125 29.359375 22.347656 C 29.589844 22.234375 29.847656 22.175781 30.132812 22.175781 C 30.40625 22.175781 30.65625 22.234375 30.886719 22.347656 C 31.125 22.453125 31.246094 22.632812 31.246094 22.882812 L 31.246094 30.925781 C 31.246094 31.605469 31.410156 32.113281 31.742188 32.445312 C 32.074219 32.769531 32.535156 32.929688 33.128906 32.929688 C 33.710938 32.929688 34.167969 32.769531 34.5 32.445312 C 34.839844 32.113281 35.011719 31.605469 35.011719 30.925781 L 35.011719 22.882812 C 35.011719 22.632812 35.121094 22.453125 35.335938 22.347656 C 35.566406 22.234375 35.828125 22.175781 36.125 22.175781 C 36.398438 22.175781 36.648438 22.234375 36.878906 22.347656 C 37.117188 22.453125 37.238281 22.632812 37.238281 22.882812 L 37.238281 30.925781 C 37.238281 31.894531 37.054688 32.671875 36.691406 33.257812 C 36.324219 33.832031 35.828125 34.253906 35.199219 34.515625 C 34.582031 34.769531 33.894531 34.894531 33.128906 34.894531 Z M 43.105469 34.792969 C 42.832031 34.792969 42.574219 34.734375 42.335938 34.621094 C 42.109375 34.492188 41.992188 34.308594 41.992188 34.066406 L 41.992188 29.734375 C 41.992188 29.644531 41.976562 29.570312 41.941406 29.511719 L 38.398438 23.332031 C 38.375 23.289062 38.359375 23.246094 38.347656 23.210938 C 38.347656 23.167969 38.347656 23.132812 38.347656 23.109375 C 38.347656 22.925781 38.425781 22.765625 38.585938 22.625 C 38.746094 22.488281 38.941406 22.378906 39.167969 22.296875 C 39.398438 22.21875 39.613281 22.175781 39.820312 22.175781 C 40 22.175781 40.140625 22.21875 40.230469 22.296875 C 40.320312 22.367188 40.40625 22.476562 40.488281 22.625 L 43.105469 27.613281 L 45.710938 22.625 C 45.800781 22.476562 45.890625 22.367188 45.984375 22.296875 C 46.074219 22.21875 46.210938 22.175781 46.394531 22.175781 C 46.601562 22.175781 46.8125 22.21875 47.027344 22.296875 C 47.257812 22.378906 47.449219 22.488281 47.609375 22.625 C 47.78125 22.765625 47.867188 22.925781 47.867188 23.109375 C 47.867188 23.132812 47.863281 23.167969 47.851562 23.210938 C 47.851562 23.246094 47.839844 23.289062 47.816406 23.332031 L 44.269531 29.511719 C 44.238281 29.570312 44.21875 29.644531 44.21875 29.734375 L 44.21875 34.066406 C 44.21875 34.308594 44.101562 34.492188 43.859375 34.621094 C 43.632812 34.734375 43.382812 34.792969 43.105469 34.792969 Z M 43.105469 34.792969 "/>
<path style=" stroke:none;fill-rule:nonzero;fill:rgb(100%,100%,100%);fill-opacity:1;" d="M 31.855469 19.09375 C 25.976562 22.34375 18.882812 21.226562 15.339844 18.875 C 12.777344 17.171875 9.574219 15.054688 6.632812 16.679688 C 1.964844 18.925781 1.335938 20.808594 1.355469 20.867188 L 0.800781 19.09375 C 0.535156 18.726562 3.746094 16.394531 7.191406 14.773438 C 9.238281 14.359375 11.164062 13.183594 17.574219 17.855469 C 19.992188 19.464844 24.074219 19.984375 30.652344 17.949219 C 31.707031 17.621094 37 15.589844 37.847656 14.222656 C 37.9375 14.527344 34.835938 17.449219 31.855469 19.09375 Z M 31.855469 19.09375 "/>
<path style=" stroke:none;fill-rule:nonzero;fill:rgb(96.078431%,86.666667%,0%);fill-opacity:1;" d="M 43.859375 18.167969 L 44.808594 17.128906 L 44.390625 10.261719 C 44.390625 10.261719 45.054688 9.738281 45.980469 8.851562 C 46.554688 8.273438 46.972656 7.441406 47.164062 6.496094 L 47.164062 6.5 L 47.121094 6.40625 C 46.4375 6.246094 45.730469 6.410156 45.117188 6.882812 L 45.109375 6.890625 C 44.140625 7.683594 43.519531 8.296875 43.519531 8.296875 L 39.3125 4.785156 L 38.238281 5.539062 L 40.566406 8.371094 L 41.570312 9.960938 C 40.65625 10.679688 39.824219 11.59375 39.101562 12.667969 L 39.152344 12.597656 L 38.132812 11.566406 L 37.46875 12.152344 L 38.5625 13.683594 C 38.480469 13.867188 38.421875 14.023438 38.367188 14.183594 L 38.375 14.160156 L 38.269531 14.253906 C 38.292969 14.253906 38.320312 14.253906 38.34375 14.253906 C 38.335938 14.285156 38.320312 14.316406 38.3125 14.347656 L 38.417969 14.253906 C 38.523438 14.253906 38.652344 14.246094 38.777344 14.226562 L 38.800781 14.222656 L 39.304688 16.277344 L 39.96875 15.6875 L 39.753906 13.941406 C 40.496094 13.609375 41.292969 13.097656 42.046875 12.425781 C 42.203125 12.285156 42.359375 12.144531 42.507812 11.992188 L 42.488281 12.015625 L 43.0625 13.984375 Z M 43.859375 18.167969 "/>
</g>
</svg>
