<svg width="342" height="300" viewBox="0 0 342 300" fill="none" xmlns="http://www.w3.org/2000/svg">
<path d="M320.333 128.667H67.3199L144.76 35.6535C148.381 31.2969 150.123 25.6802 149.603 20.0391C149.083 14.3981 146.343 9.19461 141.987 5.57352C137.63 1.95243 132.013 0.210308 126.372 0.730409C120.731 1.25051 115.528 3.99023 111.907 8.34685L5.23992 136.347C4.52228 137.365 3.88054 138.435 3.31992 139.547C3.31992 140.614 3.31992 141.254 1.82659 142.32C0.859623 144.766 0.353329 147.37 0.333252 150C0.353329 152.63 0.859623 155.234 1.82659 157.68C1.82659 158.747 1.82658 159.387 3.31992 160.454C3.88054 161.566 4.52228 162.635 5.23992 163.654L111.907 291.654C113.912 294.062 116.424 295.998 119.263 297.326C122.102 298.653 125.199 299.339 128.333 299.334C133.318 299.343 138.148 297.607 141.987 294.427C144.147 292.636 145.932 290.436 147.241 287.954C148.55 285.472 149.356 282.756 149.614 279.962C149.872 277.168 149.576 274.351 148.743 271.671C147.91 268.991 146.556 266.503 144.76 264.347L67.3199 171.334H320.333C325.991 171.334 331.417 169.086 335.418 165.085C339.419 161.084 341.667 155.658 341.667 150C341.667 144.342 339.419 138.916 335.418 134.915C331.417 130.914 325.991 128.667 320.333 128.667Z" fill="#EEF4FA"/>
</svg>
