<svg width="46" height="41" viewBox="0 0 46 41" fill="none" xmlns="http://www.w3.org/2000/svg">
<path d="M32.1521 6.63646L39.3556 13.8399C39.659 14.1434 39.659 14.6385 39.3556 14.942L21.9139 32.3837L14.5028 33.2062C13.5125 33.318 12.674 32.4795 12.7858 31.4892L13.6083 24.0781L31.05 6.63646C31.3535 6.33298 31.8486 6.33298 32.1521 6.63646ZM45.0896 4.80764L41.1924 0.910416C39.9785 -0.303472 38.0059 -0.303472 36.784 0.910416L33.9569 3.7375C33.6535 4.04097 33.6535 4.53611 33.9569 4.83958L41.1604 12.0431C41.4639 12.3465 41.959 12.3465 42.2625 12.0431L45.0896 9.21597C46.3035 7.9941 46.3035 6.02153 45.0896 4.80764ZM30.6667 27.6399V35.7698H5.11111V10.2142H23.4632C23.7187 10.2142 23.9583 10.1104 24.142 9.93472L27.3365 6.74028C27.9434 6.13333 27.5122 5.10312 26.6576 5.10312H3.83333C1.71701 5.10312 0 6.82014 0 8.93646V37.0476C0 39.1639 1.71701 40.8809 3.83333 40.8809H31.9444C34.0608 40.8809 35.7778 39.1639 35.7778 37.0476V24.4455C35.7778 23.591 34.7476 23.1677 34.1406 23.7667L30.9462 26.9611C30.7705 27.1448 30.6667 27.3844 30.6667 27.6399Z" fill="#8A8A8A"/>
</svg>
