<svg width="928" height="512" viewBox="0 0 928 512" fill="none" xmlns="http://www.w3.org/2000/svg">
<path d="M30.5 510.5C25.5 510.5 21.5 509.167 18.5 506.5C15.5 503.833 14 500.167 14 495.5V370C14 358.333 17.3333 349.25 24 342.75C30.8333 336.25 40.25 333 52.25 333H130C135 333 138.833 334.167 141.5 336.5C144.167 338.667 145.5 341.833 145.5 346C145.5 350 144.083 353.167 141.25 355.5C138.583 357.667 134.833 358.75 130 358.75H58C54.6667 358.75 52 359.833 50 362C48.1667 364.167 47.25 367.167 47.25 371V408.25H111C116 408.25 119.833 409.417 122.5 411.75C125.167 413.917 126.5 417.083 126.5 421.25C126.5 425.25 125.083 428.417 122.25 430.75C119.583 432.917 115.833 434 111 434H47.25V495.5C47.25 500 45.6667 503.667 42.5 506.5C39.5 509.167 35.5 510.5 30.5 510.5ZM210.609 510.5C196.276 510.5 183.776 507.917 173.109 502.75C162.443 497.583 154.193 490.333 148.359 481C142.693 471.5 139.859 460.417 139.859 447.75C139.859 427.25 145.776 411.333 157.609 400C169.609 388.667 186.443 383 208.109 383C221.443 383 233.193 385.083 243.359 389.25C253.693 393.417 261.693 399.25 267.359 406.75C273.193 414.083 276.109 422.5 276.109 432C276.109 440 273.526 446.167 268.359 450.5C263.359 454.833 256.193 457 246.859 457H171.609C171.609 466.333 174.859 473.417 181.359 478.25C188.026 482.917 197.776 485.25 210.609 485.25C224.109 485.25 235.609 482.25 245.109 476.25C250.443 472.917 254.609 471.25 257.609 471.25C260.443 471.25 263.193 472.583 265.859 475.25C268.693 478.083 270.109 481.167 270.109 484.5C270.109 488.5 268.443 491.667 265.109 494C258.109 499.333 249.943 503.417 240.609 506.25C231.276 509.083 221.276 510.5 210.609 510.5ZM236.859 434C239.693 434 241.693 433.5 242.859 432.5C244.026 431.333 244.609 429.5 244.609 427C244.609 421.167 241.276 416.583 234.609 413.25C228.109 409.917 219.276 408.25 208.109 408.25C196.943 408.25 188.109 410.583 181.609 415.25C175.276 419.917 172.109 426.167 172.109 434H236.859ZM364.906 510.5C350.573 510.5 338.073 507.917 327.406 502.75C316.74 497.583 308.49 490.333 302.656 481C296.99 471.5 294.156 460.417 294.156 447.75C294.156 427.25 300.073 411.333 311.906 400C323.906 388.667 340.74 383 362.406 383C375.74 383 387.49 385.083 397.656 389.25C407.99 393.417 415.99 399.25 421.656 406.75C427.49 414.083 430.406 422.5 430.406 432C430.406 440 427.823 446.167 422.656 450.5C417.656 454.833 410.49 457 401.156 457H325.906C325.906 466.333 329.156 473.417 335.656 478.25C342.323 482.917 352.073 485.25 364.906 485.25C378.406 485.25 389.906 482.25 399.406 476.25C404.74 472.917 408.906 471.25 411.906 471.25C414.74 471.25 417.49 472.583 420.156 475.25C422.99 478.083 424.406 481.167 424.406 484.5C424.406 488.5 422.74 491.667 419.406 494C412.406 499.333 404.24 503.417 394.906 506.25C385.573 509.083 375.573 510.5 364.906 510.5ZM391.156 434C393.99 434 395.99 433.5 397.156 432.5C398.323 431.333 398.906 429.5 398.906 427C398.906 421.167 395.573 416.583 388.906 413.25C382.406 409.917 373.573 408.25 362.406 408.25C351.24 408.25 342.406 410.583 335.906 415.25C329.573 419.917 326.406 426.167 326.406 434H391.156ZM472.203 510.5C467.036 510.5 463.036 509.167 460.203 506.5C457.37 503.833 455.953 500.167 455.953 495.5V333.25C455.953 328.583 457.37 324.917 460.203 322.25C463.036 319.583 467.036 318.25 472.203 318.25C477.203 318.25 481.203 319.583 484.203 322.25C487.203 324.917 488.703 328.583 488.703 333.25V495.5C488.703 500.167 487.203 503.833 484.203 506.5C481.203 509.167 477.203 510.5 472.203 510.5ZM595.877 510.5C580.21 510.5 566.46 507.333 554.627 501C542.96 494.667 533.877 485.667 527.377 474C521.044 462.167 517.877 448.25 517.877 432.25V345.5C517.877 340.833 519.377 337.167 522.377 334.5C525.377 331.833 529.377 330.5 534.377 330.5C539.377 330.5 543.377 331.917 546.377 334.75C549.544 337.417 551.127 341 551.127 345.5V433C551.127 449.5 555.044 462.167 562.877 471C570.71 479.833 581.96 484.25 596.627 484.25C611.127 484.25 622.294 479.833 630.127 471C638.127 462 642.127 449.333 642.127 433V345.5C642.127 341 643.627 337.417 646.627 334.75C649.794 331.917 653.877 330.5 658.877 330.5C663.877 330.5 667.877 331.833 670.877 334.5C673.877 337.167 675.377 340.833 675.377 345.5V432.25C675.377 447.75 672.044 461.417 665.377 473.25C658.877 485.083 649.627 494.25 637.627 500.75C625.627 507.25 611.71 510.5 595.877 510.5ZM843.732 330.5C848.732 330.5 852.732 331.833 855.732 334.5C858.732 337.167 860.232 340.833 860.232 345.5V371.75C860.232 393.917 854.649 412 843.482 426C832.316 439.833 816.732 448.25 796.732 451.25V495.5C796.732 500 795.149 503.667 791.982 506.5C788.982 509.167 784.982 510.5 779.982 510.5C774.982 510.5 770.982 509.167 767.982 506.5C764.982 503.833 763.482 500.167 763.482 495.5V451.25C743.316 448.25 727.649 439.833 716.482 426C705.316 412.167 699.732 394.083 699.732 371.75V345.5C699.732 340.833 701.232 337.167 704.232 334.5C707.232 331.833 711.232 330.5 716.232 330.5C721.232 330.5 725.232 331.917 728.232 334.75C731.399 337.417 732.982 341 732.982 345.5V372.5C732.982 389.833 736.982 403.167 744.982 412.5C753.149 421.667 764.816 426.25 779.982 426.25C795.149 426.25 806.732 421.667 814.732 412.5C822.899 403.167 826.982 389.833 826.982 372.5V345.5C826.982 341 828.482 337.417 831.482 334.75C834.649 331.917 838.732 330.5 843.732 330.5Z" fill="#0575E6"/>
<path d="M508.001 299.088C399.831 344.169 337.963 312.636 272.499 279.357C225.199 255.271 166.029 225.318 111.944 247.858C26.0321 278.986 14.5758 305.302 14.8888 306.118L4.56913 281.233C-0.357959 276.057 56.0519 243.16 119.47 220.726C153.543 212.426 163.696 211.224 313.627 265.282C358.319 288.022 444.973 298.319 499.058 275.779C518.482 271.286 618.699 225.814 634.274 206.715C635.928 211.027 562.802 276.249 508.001 299.088Z" fill="#0575E6"/>
<path d="M761.068 261.201L779.321 246.115L771.271 146.627C771.271 146.627 784.015 139.049 801.821 126.218C812.821 117.835 820.844 105.799 824.561 92.103L824.54 92.1683L823.747 90.8254C810.609 88.454 797.01 90.8828 785.189 97.712L785.036 97.8041C766.444 109.288 754.486 118.213 754.486 118.213L673.701 67.3249L652.998 78.264L697.726 119.272L717.068 142.274C699.475 152.73 683.473 165.965 669.632 181.506L670.623 180.473L650.971 165.53L638.227 174.044L659.24 196.228C657.704 198.849 656.535 201.121 655.472 203.437L655.628 203.116L653.629 204.452C654.095 204.47 654.58 204.455 655.048 204.461C654.862 204.915 654.634 205.365 654.444 205.831L656.443 204.496C658.52 204.498 660.953 204.365 663.385 204.098L663.847 204.026L673.519 233.786L686.263 225.272L682.134 199.959C696.436 195.169 711.697 187.701 726.235 177.989C729.247 175.977 732.19 173.897 735.06 171.744L734.662 172.04L745.757 200.561L761.079 261.204L761.068 261.201Z" fill="#F5DD00"/>
</svg>
