<svg width="45" height="46" viewBox="0 0 45 46" fill="none" xmlns="http://www.w3.org/2000/svg">
<path d="M19.9761 44.6237C7.77336 26.9333 5.5083 25.1177 5.5083 18.6162C5.5083 9.71059 12.7277 2.49121 21.6333 2.49121C30.5389 2.49121 37.7583 9.71059 37.7583 18.6162C37.7583 25.1177 35.4932 26.9333 23.2905 44.6237C22.4897 45.7805 20.7768 45.7804 19.9761 44.6237ZM21.6333 25.335C25.344 25.335 28.3521 22.3269 28.3521 18.6162C28.3521 14.9055 25.344 11.8975 21.6333 11.8975C17.9226 11.8975 14.9146 14.9055 14.9146 18.6162C14.9146 22.3269 17.9226 25.335 21.6333 25.335Z" fill="#747474"/>
<path d="M39.6854 0.999759L4.61691 40.9567" stroke="#777777" stroke-width="3"/>
</svg>
