<svg width="33" height="43" viewBox="0 0 33 43" fill="none" xmlns="http://www.w3.org/2000/svg">
<path d="M14.4678 42.1325C2.26506 24.4421 0 22.6265 0 16.125C0 7.21938 7.21938 0 16.125 0C25.0306 0 32.25 7.21938 32.25 16.125C32.25 22.6265 29.9849 24.4421 17.7822 42.1325C16.9814 43.2893 15.2685 43.2892 14.4678 42.1325ZM16.125 22.8438C19.8357 22.8438 22.8438 19.8357 22.8438 16.125C22.8438 12.4143 19.8357 9.40625 16.125 9.40625C12.4143 9.40625 9.40625 12.4143 9.40625 16.125C9.40625 19.8357 12.4143 22.8438 16.125 22.8438Z" fill="#D55959"/>
</svg>
