<svg width="705" height="512" viewBox="0 0 705 512" fill="none" xmlns="http://www.w3.org/2000/svg">
<path d="M31.25 509C27.25 509 23.5 508.167 20 506.5C16.6667 504.667 15 502.083 15 498.75V336.75C15 333.25 16.5 330.667 19.5 329C22.5 327.167 25.75 326.25 29.25 326.25H116.5C120.167 326.25 122.75 327.75 124.25 330.75C125.917 333.75 126.75 336.917 126.75 340.25C126.75 344.25 125.833 347.667 124 350.5C122.333 353.333 119.833 354.75 116.5 354.75H47.5V404.75H85.75C89.0833 404.75 91.5833 406.083 93.25 408.75C95.0833 411.25 96 414.25 96 417.75C96 420.583 95.1667 423.417 93.5 426.25C92 428.917 89.4167 430.25 85.75 430.25H47.5V498.75C47.5 502.083 45.8333 504.667 42.5 506.5C39.1667 508.167 35.4167 509 31.25 509ZM173.48 511.25C161.647 511.25 151.147 509.167 141.98 505C132.98 500.667 125.897 494.667 120.73 487C115.564 479.167 112.98 470.167 112.98 460V438.75C112.98 429.75 115.397 421.5 120.23 414C125.23 406.333 131.814 400.25 139.98 395.75C148.314 391.083 157.564 388.75 167.73 388.75C177.064 388.75 185.564 390.75 193.23 394.75C201.064 398.75 207.397 404.25 212.23 411.25C217.064 418.25 219.48 426.417 219.48 435.75C219.48 442.917 218.314 448.083 215.98 451.25C213.647 454.25 210.647 456.167 206.98 457C203.48 457.667 199.814 458 195.98 458H145.23V461.75C145.23 468.917 147.897 474.75 153.23 479.25C158.73 483.583 165.814 485.75 174.48 485.75C179.98 485.75 184.564 484.917 188.23 483.25C191.897 481.583 195.064 480 197.73 478.5C200.397 477 202.897 476.25 205.23 476.25C207.73 476.25 209.897 477.083 211.73 478.75C213.564 480.417 214.98 482.417 215.98 484.75C216.98 486.917 217.48 488.833 217.48 490.5C217.48 493.333 215.647 496.417 211.98 499.75C208.48 502.917 203.397 505.667 196.73 508C190.23 510.167 182.48 511.25 173.48 511.25ZM145.23 439H181.73C184.564 439 186.48 438.583 187.48 437.75C188.647 436.75 189.23 434.917 189.23 432.25C189.23 428.417 188.147 425 185.98 422C183.98 419 181.314 416.667 177.98 415C174.814 413.333 171.23 412.5 167.23 412.5C163.397 412.5 159.814 413.333 156.48 415C153.147 416.5 150.397 418.75 148.23 421.75C146.23 424.583 145.23 428 145.23 432V439ZM294.818 511.25C282.985 511.25 272.485 509.167 263.318 505C254.318 500.667 247.235 494.667 242.068 487C236.902 479.167 234.318 470.167 234.318 460V438.75C234.318 429.75 236.735 421.5 241.568 414C246.568 406.333 253.152 400.25 261.318 395.75C269.652 391.083 278.902 388.75 289.068 388.75C298.402 388.75 306.902 390.75 314.568 394.75C322.402 398.75 328.735 404.25 333.568 411.25C338.402 418.25 340.818 426.417 340.818 435.75C340.818 442.917 339.652 448.083 337.318 451.25C334.985 454.25 331.985 456.167 328.318 457C324.818 457.667 321.152 458 317.318 458H266.568V461.75C266.568 468.917 269.235 474.75 274.568 479.25C280.068 483.583 287.152 485.75 295.818 485.75C301.318 485.75 305.902 484.917 309.568 483.25C313.235 481.583 316.402 480 319.068 478.5C321.735 477 324.235 476.25 326.568 476.25C329.068 476.25 331.235 477.083 333.068 478.75C334.902 480.417 336.318 482.417 337.318 484.75C338.318 486.917 338.818 488.833 338.818 490.5C338.818 493.333 336.985 496.417 333.318 499.75C329.818 502.917 324.735 505.667 318.068 508C311.568 510.167 303.818 511.25 294.818 511.25ZM266.568 439H303.068C305.902 439 307.818 438.583 308.818 437.75C309.985 436.75 310.568 434.917 310.568 432.25C310.568 428.417 309.485 425 307.318 422C305.318 419 302.652 416.667 299.318 415C296.152 413.333 292.568 412.5 288.568 412.5C284.735 412.5 281.152 413.333 277.818 415C274.485 416.5 271.735 418.75 269.568 421.75C267.568 424.583 266.568 428 266.568 432V439ZM378.406 509C373.74 509 369.906 507.917 366.906 505.75C363.906 503.583 362.406 501.167 362.406 498.5V331C362.406 328 363.906 325.583 366.906 323.75C369.906 321.917 373.74 321 378.406 321C382.906 321 386.74 321.917 389.906 323.75C393.073 325.583 394.656 328 394.656 331V498.5C394.656 501.167 393.073 503.583 389.906 505.75C386.74 507.917 382.906 509 378.406 509ZM483.674 510.5C472.34 510.5 462.174 508.667 453.174 505C444.174 501.167 437.007 495.083 431.674 486.75C426.34 478.25 423.674 467 423.674 453V336.5C423.674 332.833 425.34 330.25 428.674 328.75C432.007 327.083 435.757 326.25 439.924 326.25C443.924 326.25 447.59 327.083 450.924 328.75C454.424 330.25 456.174 332.833 456.174 336.5V453C456.174 462.833 458.59 470.167 463.424 475C468.257 479.667 475.007 482 483.674 482C492.174 482 498.84 479.667 503.674 475C508.674 470.167 511.174 462.833 511.174 453V336.5C511.174 332.833 512.757 330.25 515.924 328.75C519.257 327.083 523.09 326.25 527.424 326.25C531.424 326.25 535.091 327.083 538.424 328.75C541.924 330.25 543.674 332.833 543.674 336.5V453C543.674 467 541.007 478.25 535.674 486.75C530.34 495.083 523.09 501.167 513.924 505C504.924 508.667 494.841 510.5 483.674 510.5ZM629.361 509C625.361 509 621.611 508.167 618.111 506.5C614.778 504.667 613.111 502 613.111 498.5V435.75C613.111 434.417 612.861 433.333 612.361 432.5L560.611 343C560.278 342.333 560.028 341.75 559.861 341.25C559.861 340.583 559.861 340.083 559.861 339.75C559.861 337.083 561.028 334.75 563.361 332.75C565.695 330.75 568.528 329.167 571.861 328C575.195 326.833 578.361 326.25 581.361 326.25C584.028 326.25 586.028 326.833 587.361 328C588.695 329 589.945 330.583 591.111 332.75L629.361 405L667.361 332.75C668.695 330.583 670.028 329 671.361 328C672.695 326.833 674.695 326.25 677.361 326.25C680.361 326.25 683.445 326.833 686.611 328C689.945 329.167 692.778 330.75 695.111 332.75C697.611 334.75 698.861 337.083 698.861 339.75C698.861 340.083 698.778 340.583 698.611 341.25C698.611 341.75 698.445 342.333 698.111 343L646.361 432.5C645.861 433.333 645.611 434.417 645.611 435.75V498.5C645.611 502 643.861 504.667 640.361 506.5C637.028 508.167 633.361 509 629.361 509Z" fill="#F3F8FC"/>
<path d="M402.357 297.697C316.513 344.789 267.603 312.493 215.849 278.409C178.456 253.74 131.678 223.064 88.7562 246.61C20.5926 279.179 11.4304 306.427 11.6757 307.269L3.58161 281.602C-0.304843 276.276 44.4924 242.016 94.8073 218.536C121.829 209.8 129.876 208.51 248.479 263.672C283.81 286.962 352.426 297.198 395.348 273.651C410.751 268.918 490.295 221.459 502.696 201.649C503.992 206.097 445.846 273.839 402.357 297.697Z" fill="#EEF4FA"/>
<path d="M615.182 261.201L629.049 246.115L622.933 146.627C622.933 146.627 632.615 139.049 646.142 126.218C654.499 117.835 660.594 105.799 663.417 92.103L663.402 92.1683L662.799 90.8254C652.818 88.454 642.487 90.8828 633.507 97.712L633.39 97.8041C619.266 109.288 610.181 118.213 610.181 118.213L548.81 67.3249L533.082 78.264L567.061 119.272L581.755 142.274C568.39 152.73 556.233 165.965 545.718 181.506L546.471 180.473L531.542 165.53L521.86 174.044L537.823 196.228C536.656 198.849 535.769 201.121 534.961 203.437L535.08 203.116L533.561 204.452C533.915 204.47 534.283 204.455 534.639 204.461C534.497 204.915 534.324 205.365 534.18 205.831L535.699 204.496C537.277 204.498 539.125 204.365 540.973 204.098L541.323 204.026L548.671 233.786L558.353 225.272L555.216 199.959C566.081 195.169 577.675 187.701 588.719 177.989C591.008 175.977 593.244 173.897 595.424 171.744L595.121 172.04L603.55 200.561L615.19 261.204L615.182 261.201Z" fill="#F5DD00"/>
</svg>
