<svg width="35" height="49" viewBox="0 0 35 49" fill="none" xmlns="http://www.w3.org/2000/svg">
<path d="M2.5 44.4063C2.5 45.6246 2.89509 46.793 3.59835 47.6545C4.30161 48.516 5.25544 49 6.25 49H28.75C29.7446 49 30.6984 48.516 31.4017 47.6545C32.1049 46.793 32.5 45.6246 32.5 44.4063V12.25H2.5V44.4063ZM23.75 19.9063C23.75 19.5001 23.8817 19.1107 24.1161 18.8235C24.3505 18.5363 24.6685 18.375 25 18.375C25.3315 18.375 25.6495 18.5363 25.8839 18.8235C26.1183 19.1107 26.25 19.5001 26.25 19.9063V41.3438C26.25 41.7499 26.1183 42.1393 25.8839 42.4265C25.6495 42.7137 25.3315 42.875 25 42.875C24.6685 42.875 24.3505 42.7137 24.1161 42.4265C23.8817 42.1393 23.75 41.7499 23.75 41.3438V19.9063ZM16.25 19.9063C16.25 19.5001 16.3817 19.1107 16.6161 18.8235C16.8505 18.5363 17.1685 18.375 17.5 18.375C17.8315 18.375 18.1495 18.5363 18.3839 18.8235C18.6183 19.1107 18.75 19.5001 18.75 19.9063V41.3438C18.75 41.7499 18.6183 42.1393 18.3839 42.4265C18.1495 42.7137 17.8315 42.875 17.5 42.875C17.1685 42.875 16.8505 42.7137 16.6161 42.4265C16.3817 42.1393 16.25 41.7499 16.25 41.3438V19.9063ZM8.75 19.9063C8.75 19.5001 8.8817 19.1107 9.11612 18.8235C9.35054 18.5363 9.66848 18.375 10 18.375C10.3315 18.375 10.6495 18.5363 10.8839 18.8235C11.1183 19.1107 11.25 19.5001 11.25 19.9063V41.3438C11.25 41.7499 11.1183 42.1393 10.8839 42.4265C10.6495 42.7137 10.3315 42.875 10 42.875C9.66848 42.875 9.35054 42.7137 9.11612 42.4265C8.8817 42.1393 8.75 41.7499 8.75 41.3438V19.9063ZM33.75 3.06252H24.375L23.6406 1.27287C23.4851 0.89026 23.2454 0.568419 22.9487 0.343551C22.6519 0.118683 22.3099 -0.000289786 21.9609 1.67794e-05H13.0313C12.6831 -0.00162267 12.3416 0.116907 12.0459 0.342025C11.7503 0.567143 11.5123 0.889744 11.3594 1.27287L10.625 3.06252H1.25C0.918479 3.06252 0.600537 3.22384 0.366117 3.51101C0.131696 3.79817 0 4.18765 0 4.59377L0 7.65626C0 8.06238 0.131696 8.45186 0.366117 8.73902C0.600537 9.02619 0.918479 9.18751 1.25 9.18751H33.75C34.0815 9.18751 34.3995 9.02619 34.6339 8.73902C34.8683 8.45186 35 8.06238 35 7.65626V4.59377C35 4.18765 34.8683 3.79817 34.6339 3.51101C34.3995 3.22384 34.0815 3.06252 33.75 3.06252Z" fill="#8A8A8A"/>
</svg>
